<?xml version="1.0" standalone="no"?>
<!DOCTYPE svg PUBLIC "-//W3C//DTD SVG 20010904//EN"
 "http://www.w3.org/TR/2001/REC-SVG-20010904/DTD/svg10.dtd">
<svg version="1.0" xmlns="http://www.w3.org/2000/svg"
 width="300.000000pt" height="300.000000pt" viewBox="0 0 300.000000 300.000000"
 preserveAspectRatio="xMidYMid meet">
<metadata>
Created by potrace 1.11, written by Peter Selinger 2001-2013
</metadata>
<g transform="translate(0.000000,300.000000) scale(0.100000,-0.100000)"
fill="#000000" stroke="none">
<path d="M270 1500 l0 -1492 608 5 c334 2 618 6 632 10 14 3 59 11 100 17 215
32 433 115 610 234 62 42 233 202 275 257 42 55 99 147 134 216 40 80 105 259
115 316 3 15 7 35 10 45 3 9 7 33 10 52 13 86 18 117 22 140 10 49 11 397 3
480 -41 385 -189 690 -433 889 -185 151 -409 248 -673 291 -40 6 -85 14 -100
17 -15 3 -317 7 -670 10 l-643 4 0 -1491z m1250 815 c301 -81 445 -340 442
-791 0 -50 -4 -125 -7 -165 -6 -65 -10 -94 -31 -197 -9 -44 -54 -155 -86 -210
-47 -83 -133 -164 -219 -205 -120 -58 -181 -70 -374 -71 l-169 -1 -1 825 c0
454 1 829 3 834 8 16 371 0 442 -19z"/>
</g>
</svg>
